<?xml version="1.0" standalone="no"?>
<!DOCTYPE svg PUBLIC "-//W3C//DTD SVG 20010904//EN"
 "http://www.w3.org/TR/2001/REC-SVG-20010904/DTD/svg10.dtd">
<svg version="1.0" xmlns="http://www.w3.org/2000/svg"
 width="512.000000pt" height="512.000000pt" viewBox="0 0 512.000000 512.000000"
 preserveAspectRatio="xMidYMid meet">
<metadata>
Created by potrace 1.11, written by Peter Selinger 2001-2013
</metadata>
<g transform="translate(0.000000,512.000000) scale(0.100000,-0.100000)"
fill="#000000" stroke="none">
<path d="M2385 4844 c-473 -50 -853 -194 -1205 -457 -114 -86 -308 -272 -397
-382 -286 -354 -460 -781 -507 -1242 l-5 -53 494 0 495 0 0 495 0 495 150 0
150 0 0 -385 c0 -212 3 -385 8 -385 4 0 174 167 377 371 204 204 382 377 397
385 23 12 118 14 575 14 l549 0 39 41 c64 66 107 84 200 84 93 0 136 -18 200
-84 l39 -41 298 0 c164 0 298 4 298 8 0 4 -30 53 -66 107 -363 548 -933 911
-1584 1010 -102 15 -424 27 -505 19z"/>
<path d="M2050 2985 l-425 -425 300 -300 c165 -165 302 -300 305 -300 3 0 16
21 30 46 50 96 85 117 114 72 8 -13 35 -102 61 -198 l46 -175 104 -105 c57
-58 109 -118 114 -134 7 -18 11 -225 11 -607 l0 -579 40 0 c49 0 221 25 310
46 434 99 820 314 1132 631 178 180 307 361 419 588 110 223 174 427 216 680
28 170 25 527 -6 698 -27 155 -61 289 -102 402 l-31 85 -372 0 -372 0 -47 -48
-47 -48 0 -952 0 -952 -145 0 -145 0 0 953 0 953 -48 47 -48 47 -494 0 -495 0
-425 -425z"/>
<path d="M274 2378 c3 -18 8 -60 11 -93 12 -115 56 -311 102 -448 211 -637
695 -1150 1322 -1401 195 -79 438 -139 616 -152 l85 -7 0 540 0 540 -72 69
-73 69 -189 49 c-162 43 -189 53 -199 73 -13 30 3 48 83 93 l61 34 -223 223
c-123 123 -226 223 -230 223 -5 0 -8 -176 -8 -390 l0 -391 -147 3 -148 3 -3
498 -2 497 -496 0 -495 0 5 -32z"/>
</g>
</svg>
